<svg xmlns="http://www.w3.org/2000/svg" xmlns:xlink="http://www.w3.org/1999/xlink" contentStyleType="text/css" data-diagram-type="DESCRIPTION" height="803px" preserveAspectRatio="none" style="width:1151px;height:803px;background:#FFFFFF;" version="1.1" viewBox="0 0 1151 803" width="1151px" zoomAndPan="magnify"><?plantuml 1.2026.4?><defs/><g><g class="title" data-source-line="1"><text fill="#000000" font-family="'Noto Sans CJK TC'" font-size="14" font-weight="700" lengthAdjust="spacing" textLength="432.0723" x="355.9639" y="23.5352">Trust Kernel Runtime Boundary &#8212; Actual v0.17.2 and target</text></g><!--cluster Outer layer ? IO allowed--><g class="cluster" data-qualified-name="Outer layer . IO allowed" data-source-line="17" id="ent0001"><path d="M12,43.4883 L199.8574,43.4883 A9,9 0 0 1 205.8574,49.4883 L212.8574,67.1543 L381,67.1543 A6,6 0 0 1 387,73.1543 L387,428.9883 A6,6 0 0 1 381,434.9883 L12,434.9883 A6,6 0 0 1 6,428.9883 L6,49.4883 A6,6 0 0 1 12,43.4883" fill="none" style="stroke:#000000;stroke-width:1.5;"/><line style="stroke:#000000;stroke-width:1.5;" x1="6" x2="212.8574" y1="67.1543" y2="67.1543"/><text fill="#000000" font-family="'Noto Sans CJK TC'" font-size="15" font-weight="700" lengthAdjust="spacing" textLength="193.8574" x="10" y="59.9902">Outer layer &#8212; IO allowed</text></g><!--cluster Current scoring implementation--><g class="cluster" data-qualified-name="Current scoring implementation" data-source-line="25" id="ent0007"><path d="M693,558.3183 L934.771,558.3183 A9,9 0 0 1 940.771,564.3183 L947.771,581.9843 L993,581.9843 A6,6 0 0 1 999,587.9843 L999,659.6483 A6,6 0 0 1 993,665.6483 L693,665.6483 A6,6 0 0 1 687,659.6483 L687,564.3183 A6,6 0 0 1 693,558.3183" fill="none" style="stroke:#000000;stroke-width:1.5;"/><line style="stroke:#000000;stroke-width:1.5;" x1="687" x2="947.771" y1="581.9843" y2="581.9843"/><text fill="#000000" font-family="'Noto Sans CJK TC'" font-size="15" font-weight="700" lengthAdjust="spacing" textLength="247.771" x="691" y="574.8202">Current scoring implementation</text></g><!--cluster Kernel v2 contract--><g class="cluster" data-qualified-name="Kernel v2 contract" data-source-line="29" id="ent0009"><path d="M417,336.4883 L552.6504,336.4883 A9,9 0 0 1 558.6504,342.4883 L565.6504,360.1543 L657,360.1543 A6,6 0 0 1 663,366.1543 L663,668.4783 A6,6 0 0 1 657,674.4783 L417,674.4783 A6,6 0 0 1 411,668.4783 L411,342.4883 A6,6 0 0 1 417,336.4883" fill="none" style="stroke:#000000;stroke-width:1.5;"/><line style="stroke:#000000;stroke-width:1.5;" x1="411" x2="565.6504" y1="360.1543" y2="360.1543"/><text fill="#000000" font-family="'Noto Sans CJK TC'" font-size="15" font-weight="700" lengthAdjust="spacing" textLength="141.6504" x="415" y="352.9902">Kernel v2 contract</text></g><!--cluster Target pure kernel--><g class="cluster" data-qualified-name="Target pure kernel" data-source-line="35" id="ent0013"><path d="M480,698.4783 L618.6533,698.4783 A9,9 0 0 1 624.6533,704.4783 L631.6533,722.1443 L1130,722.1443 A6,6 0 0 1 1136,728.1443 L1136,782.1483 A6,6 0 0 1 1130,788.1483 L480,788.1483 A6,6 0 0 1 474,782.1483 L474,704.4783 A6,6 0 0 1 480,698.4783" fill="none" style="stroke:#000000;stroke-width:1.5;"/><line style="stroke:#000000;stroke-width:1.5;" x1="474" x2="631.6533" y1="722.1443" y2="722.1443"/><text fill="#000000" font-family="'Noto Sans CJK TC'" font-size="15" font-weight="700" lengthAdjust="spacing" textLength="144.6533" x="478" y="714.9802">Target pure kernel</text></g><!--entity sources--><g class="entity" data-qualified-name="Outer layer . IO allowed.sources" data-source-line="18" id="ent0002"><rect fill="#DCFCE7" height="37.666" rx="6" ry="6" style="stroke:#181818;stroke-width:0.5;" width="137.7954" x="22.1" y="79.4883"/><text fill="#000000" font-family="'Noto Sans CJK TC'" font-size="15" lengthAdjust="spacing" textLength="117.7954" x="32.1" y="103.9902">Sources / Cache</text></g><!--entity pipeline--><g class="entity" data-qualified-name="Outer layer . IO allowed.pipeline" data-source-line="19" id="ent0003"><rect fill="#DCFCE7" height="37.666" rx="6" ry="6" style="stroke:#181818;stroke-width:0.5;" width="76.7627" x="164.62" y="177.1583"/><text fill="#000000" font-family="'Noto Sans CJK TC'" font-size="15" lengthAdjust="spacing" textLength="56.7627" x="174.62" y="201.6602">Pipeline</text></g><!--entity orchestrator--><g class="entity" data-qualified-name="Outer layer . IO allowed.orchestrator" data-source-line="20" id="ent0004"><rect fill="#DCFCE7" height="37.666" rx="6" ry="6" style="stroke:#181818;stroke-width:0.5;" width="111.7798" x="251.11" y="274.8183"/><text fill="#000000" font-family="'Noto Sans CJK TC'" font-size="15" lengthAdjust="spacing" textLength="91.7798" x="261.11" y="299.3202">Orchestrator</text></g><!--entity bedrock--><g class="entity" data-qualified-name="Outer layer . IO allowed.bedrock" data-source-line="21" id="ent0005"><rect fill="#DCFCE7" height="37.666" rx="6" ry="6" style="stroke:#181818;stroke-width:0.5;" width="142.4756" x="228.76" y="381.3183"/><text fill="#000000" font-family="'Noto Sans CJK TC'" font-size="15" lengthAdjust="spacing" textLength="122.4756" x="238.76" y="405.8202">Bedrock / stance</text></g><!--entity modelio--><g class="entity" data-qualified-name="Outer layer . IO allowed.modelio" data-source-line="22" id="ent0006"><rect fill="#FEF3C7" height="37.666" rx="6" ry="6" style="stroke:#181818;stroke-width:0.5;" width="176.5918" x="194.7" y="79.4883"/><text fill="#000000" font-family="'Noto Sans CJK TC'" font-size="15" lengthAdjust="spacing" textLength="156.5918" x="204.7" y="103.9902">Calibration artifact IO</text></g><!--entity scoring--><g class="entity" data-qualified-name="Current scoring implementation.scoring" data-source-line="26" id="ent0008"><rect fill="#FEF3C7" height="55.332" rx="6" ry="6" style="stroke:#181818;stroke-width:0.5;" width="280.8081" x="702.6" y="594.3183"/><text fill="#000000" font-family="'Noto Sans CJK TC'" font-size="15" lengthAdjust="spacing" textLength="75.7031" x="712.6" y="618.8202">scoring.py</text><text fill="#000000" font-family="'Noto Sans CJK TC'" font-size="15" lengthAdjust="spacing" textLength="260.8081" x="712.6" y="636.4862">calculation + outer assembly mixed</text></g><!--entity input--><g class="entity" data-qualified-name="Kernel v2 contract.input" data-source-line="30" id="ent0010"><rect fill="#DBEAFE" height="55.332" rx="6" ry="6" style="stroke:#181818;stroke-width:0.5;" width="202.7246" x="431.64" y="372.4883"/><text fill="#000000" font-family="'Noto Sans CJK TC'" font-size="15" lengthAdjust="spacing" textLength="84.2798" x="441.64" y="396.9902">KernelInput</text><text fill="#000000" font-family="'Noto Sans CJK TC'" font-size="15" lengthAdjust="spacing" textLength="182.7246" x="441.64" y="414.6562">claims &#183; PIT &#183; coin &#183; query</text></g><!--entity run--><g class="entity" data-qualified-name="Kernel v2 contract.run" data-source-line="31" id="ent0011"><rect fill="#DBEAFE" height="37.666" rx="6" ry="6" style="stroke:#181818;stroke-width:0.5;" width="107.2754" x="483.36" y="487.8183"/><text fill="#000000" font-family="'Noto Sans CJK TC'" font-size="15" lengthAdjust="spacing" textLength="87.2754" x="493.36" y="512.3202">run_kernel()</text></g><!--entity output--><g class="entity" data-qualified-name="Kernel v2 contract.output" data-source-line="32" id="ent0012"><rect fill="#DBEAFE" height="72.998" rx="6" ry="6" style="stroke:#181818;stroke-width:0.5;" width="219.6289" x="427.19" y="585.4883"/><text fill="#000000" font-family="'Noto Sans CJK TC'" font-size="15" lengthAdjust="spacing" textLength="97.2217" x="437.19" y="609.9902">KernelOutput</text><text fill="#000000" font-family="'Noto Sans CJK TC'" font-size="15" lengthAdjust="spacing" textLength="199.6289" x="437.19" y="627.6563">score &#183; confidence &#183; abstain</text><text fill="#000000" font-family="'Noto Sans CJK TC'" font-size="15" lengthAdjust="spacing" textLength="174.6973" x="437.19" y="645.3223">direction &#183; reason codes</text></g><!--entity pureScore--><g class="entity" data-qualified-name="Target pure kernel.pureScore" data-source-line="36" id="ent0014"><rect fill="#DBEAFE" height="37.666" rx="6" ry="6" style="stroke:#181818;stroke-width:0.5;" width="110.52" x="489.74" y="734.4783"/><text fill="#000000" font-family="'Noto Sans CJK TC'" font-size="15" lengthAdjust="spacing" textLength="90.52" x="499.74" y="758.9802">Pure scoring</text></g><!--entity corroboration--><g class="entity" data-qualified-name="Target pure kernel.corroboration" data-source-line="37" id="ent0015"><rect fill="#DBEAFE" height="37.666" rx="6" ry="6" style="stroke:#181818;stroke-width:0.5;" width="122.627" x="635.69" y="734.4783"/><text fill="#000000" font-family="'Noto Sans CJK TC'" font-size="15" lengthAdjust="spacing" textLength="102.627" x="645.69" y="758.9802">Corroboration</text></g><!--entity reputation--><g class="entity" data-qualified-name="Target pure kernel.reputation" data-source-line="38" id="ent0016"><rect fill="#DBEAFE" height="37.666" rx="6" ry="6" style="stroke:#181818;stroke-width:0.5;" width="98.9551" x="793.52" y="734.4783"/><text fill="#000000" font-family="'Noto Sans CJK TC'" font-size="15" lengthAdjust="spacing" textLength="78.9551" x="803.52" y="758.9802">Reputation</text></g><!--entity abstain--><g class="entity" data-qualified-name="Target pure kernel.abstain" data-source-line="39" id="ent0017"><rect fill="#DBEAFE" height="37.666" rx="6" ry="6" style="stroke:#181818;stroke-width:0.5;" width="192.4268" x="927.79" y="734.4783"/><text fill="#000000" font-family="'Noto Sans CJK TC'" font-size="15" lengthAdjust="spacing" textLength="172.4268" x="937.79" y="758.9802">Abstain + reason codes</text></g><!--entity rule--><g class="entity" data-qualified-name="rule" data-source-line="58" id="ent0031"><rect fill="#FEE2E2" height="72.998" rx="6" ry="6" style="stroke:#181818;stroke-width:0.5;" width="324.585" x="67.71" y="585.4883"/><text fill="#000000" font-family="'Noto Sans CJK TC'" font-size="15" lengthAdjust="spacing" textLength="101.0449" x="77.71" y="609.9902">Boundary rule</text><text fill="#000000" font-family="'Noto Sans CJK TC'" font-size="15" lengthAdjust="spacing" textLength="304.585" x="77.71" y="627.6563">Pure kernel must not import IO, LLM, env,</text><text fill="#000000" font-family="'Noto Sans CJK TC'" font-size="15" lengthAdjust="spacing" textLength="302.3364" x="77.71" y="645.3223">filesystem, web, skills, upgrade or deploy</text></g><!--link sources to pipeline--><g class="link" data-entity-1="ent0002" data-entity-2="ent0003" data-link-type="dependency" data-source-line="42" id="lnk18"><path d="M159.98,98.1483 C171.43,98.1483 179.66,98.1483 179.66,98.1483 C179.66,98.1483 179.66,143.1483 179.66,171.6583" fill="none" id="sources-to-pipeline" style="stroke:#475569;stroke-width:1;"/><polygon fill="#475569" points="179.66,176.6583,183.66,167.6583,179.66,171.6583,175.66,167.6583,179.66,176.6583" style="stroke:#475569;stroke-width:1;stroke-linejoin:miter;stroke-miterlimit:10;"/></g><!--link pipeline to orchestrator--><g class="link" data-entity-1="ent0003" data-entity-2="ent0004" data-link-type="dependency" data-source-line="43" id="lnk19"><path d="M235.07,214.9183 C235.07,243.4383 235.07,294.1483 235.07,294.1483 C235.07,294.1483 236.58,294.1483 245.68,294.1483" fill="none" id="pipeline-to-orchestrator" style="stroke:#475569;stroke-width:1;"/><polygon fill="#475569" points="250.68,294.1483,241.68,290.1483,245.68,294.1483,241.68,298.1483,250.68,294.1483" style="stroke:#475569;stroke-width:1;stroke-linejoin:miter;stroke-miterlimit:10;"/></g><!--link orchestrator to scoring--><g class="link" data-entity-1="ent0004" data-entity-2="ent0008" data-link-type="dependency" data-source-line="44" id="lnk20"><path d="M363.35,294.1483 C500.96,294.1483 843,294.1483 843,294.1483 C843,294.1483 843,509.7483 843,589.0283" fill="none" id="orchestrator-to-scoring" style="stroke:#475569;stroke-width:1;"/><polygon fill="#475569" points="843,594.0283,847,585.0283,843,589.0283,839,585.0283,843,594.0283" style="stroke:#475569;stroke-width:1;stroke-linejoin:miter;stroke-miterlimit:10;"/><text fill="#000000" font-family="'Noto Sans CJK TC'" font-size="15" lengthAdjust="spacing" textLength="43.5059" x="709.12" y="290.6502">actual</text></g><!--link orchestrator to bedrock--><g class="link" data-entity-1="ent0004" data-entity-2="ent0005" data-link-type="dependency" data-source-line="45" id="lnk21"><path d="M288.37,312.6883 C288.37,331.9583 288.37,356.5883 288.37,375.9183" fill="none" id="orchestrator-to-bedrock" style="stroke:#475569;stroke-width:1;"/><polygon fill="#475569" points="288.37,380.9183,292.37,371.9183,288.37,375.9183,284.37,371.9183,288.37,380.9183" style="stroke:#475569;stroke-width:1;stroke-linejoin:miter;stroke-miterlimit:10;"/></g><!--link modelio to scoring--><g class="link" data-entity-1="ent0006" data-entity-2="ent0008" data-link-type="dependency" data-source-line="46" id="lnk22"><path d="M371.62,98.1483 C545.2,98.1483 913.2,98.1483 913.2,98.1483 C913.2,98.1483 913.2,480.0183 913.2,588.8183" fill="none" id="modelio-to-scoring" style="stroke:#475569;stroke-width:1;"/><polygon fill="#475569" points="913.2,593.8183,917.2,584.8183,913.2,588.8183,909.2,584.8183,913.2,593.8183" style="stroke:#475569;stroke-width:1;stroke-linejoin:miter;stroke-miterlimit:10;"/></g><!--link input to run--><g class="link" data-entity-1="ent0010" data-entity-2="ent0011" data-link-type="dependency" data-source-line="48" id="lnk23"><path d="M537,428.1383 C537,446.8683 537,466.0383 537,482.5783" fill="none" id="input-to-run" style="stroke:#475569;stroke-width:1;"/><polygon fill="#475569" points="537,487.5783,541,478.5783,537,482.5783,533,478.5783,537,487.5783" style="stroke:#475569;stroke-width:1;stroke-linejoin:miter;stroke-miterlimit:10;"/></g><!--link run to scoring--><g class="link" data-entity-1="ent0011" data-entity-2="ent0008" data-link-type="dependency" data-source-line="49" id="lnk24"><path d="M591.1,507.1483 C660.71,507.1483 772.8,507.1483 772.8,507.1483 C772.8,507.1483 772.8,554.8983 772.8,588.8883" fill="none" id="run-to-scoring" style="stroke:#475569;stroke-width:1;"/><polygon fill="#475569" points="772.8,593.8883,776.8,584.8883,772.8,588.8883,768.8,584.8883,772.8,593.8883" style="stroke:#475569;stroke-width:1;stroke-linejoin:miter;stroke-miterlimit:10;"/><text fill="#000000" font-family="'Noto Sans CJK TC'" font-size="15" lengthAdjust="spacing" textLength="139.2041" x="726.32" y="503.6502">currently delegates</text></g><!--link run to output--><g class="link" data-entity-1="ent0011" data-entity-2="ent0012" data-link-type="dependency" data-source-line="50" id="lnk25"><path d="M537,525.9583 C537,542.1183 537,560.6283 537,580.3483" fill="none" id="run-to-output" style="stroke:#475569;stroke-width:1;"/><polygon fill="#475569" points="537,585.3483,541,576.3483,537,580.3483,533,576.3483,537,585.3483" style="stroke:#475569;stroke-width:1;stroke-linejoin:miter;stroke-miterlimit:10;"/></g><!--link orchestrator to input--><g class="link" data-entity-1="ent0004" data-entity-2="ent0010" data-link-type="dependency" data-source-line="51" id="lnk26"><path d="M325.63,312.5983 C325.63,337.2383 325.63,377.1483 325.63,377.1483 C325.63,377.1483 373.9,377.1483 426.44,377.1483" fill="none" id="orchestrator-to-input" style="stroke:#475569;stroke-width:1;stroke-dasharray:7,7;"/><polygon fill="#475569" points="431.44,377.1483,422.44,373.1483,426.44,377.1483,422.44,381.1483,431.44,377.1483" style="stroke:#475569;stroke-width:1;stroke-linejoin:miter;stroke-miterlimit:10;"/><text fill="#000000" font-family="'Noto Sans CJK TC'" font-size="15" lengthAdjust="spacing" textLength="156.687" x="189.26" y="373.6502">target, not connected</text></g><!--link scoring to pureScore--><g class="link" data-entity-1="ent0008" data-entity-2="ent0014" data-link-type="dependency" data-source-line="53" id="lnk27"><path d="M721.17,650.0183 C721.17,671.0283 721.17,696.1483 721.17,696.1483 C721.17,696.1483 545,696.1483 545,696.1483 C545,696.1483 545,712.6483 545,729.2783" fill="none" id="scoring-to-pureScore" style="stroke:#475569;stroke-width:1;stroke-dasharray:7,7;"/><polygon fill="#475569" points="545,734.2783,549,725.2783,545,729.2783,541,725.2783,545,734.2783" style="stroke:#475569;stroke-width:1;stroke-linejoin:miter;stroke-miterlimit:10;"/><text fill="#000000" font-family="'Noto Sans CJK TC'" font-size="15" lengthAdjust="spacing" textLength="50.8813" x="586.08" y="692.6502">extract</text></g><!--link scoring to corroboration--><g class="link" data-entity-1="ent0008" data-entity-2="ent0015" data-link-type="dependency" data-source-line="54" id="lnk28"><path d="M739.74,649.8383 C739.74,675.1383 739.74,706.7983 739.74,729.0083" fill="none" id="scoring-to-corroboration" style="stroke:#475569;stroke-width:1;stroke-dasharray:7,7;"/><polygon fill="#475569" points="739.74,734.0083,743.74,725.0083,739.74,729.0083,735.74,725.0083,739.74,734.0083" style="stroke:#475569;stroke-width:1;stroke-linejoin:miter;stroke-miterlimit:10;"/><text fill="#000000" font-family="'Noto Sans CJK TC'" font-size="15" lengthAdjust="spacing" textLength="50.8813" x="688.74" y="688.4202">extract</text></g><!--link scoring to reputation--><g class="link" data-entity-1="ent0008" data-entity-2="ent0016" data-link-type="dependency" data-source-line="55" id="lnk29"><path d="M843,649.8383 C843,675.1383 843,706.7983 843,729.0083" fill="none" id="scoring-to-reputation" style="stroke:#475569;stroke-width:1;stroke-dasharray:7,7;"/><polygon fill="#475569" points="843,734.0083,847,725.0083,843,729.0083,839,725.0083,843,734.0083" style="stroke:#475569;stroke-width:1;stroke-linejoin:miter;stroke-miterlimit:10;"/><text fill="#000000" font-family="'Noto Sans CJK TC'" font-size="15" lengthAdjust="spacing" textLength="50.8813" x="792" y="688.4202">extract</text></g><!--link scoring to abstain--><g class="link" data-entity-1="ent0008" data-entity-2="ent0017" data-link-type="dependency" data-source-line="56" id="lnk30"><path d="M955.6,649.8383 C955.6,675.1383 955.6,706.7983 955.6,729.0083" fill="none" id="scoring-to-abstain" style="stroke:#475569;stroke-width:1;stroke-dasharray:7,7;"/><polygon fill="#475569" points="955.6,734.0083,959.6,725.0083,955.6,729.0083,951.6,725.0083,955.6,734.0083" style="stroke:#475569;stroke-width:1;stroke-linejoin:miter;stroke-miterlimit:10;"/><text fill="#000000" font-family="'Noto Sans CJK TC'" font-size="15" lengthAdjust="spacing" textLength="50.8813" x="904.6" y="688.4202">extract</text></g><!--link rule to pureScore--><?plantuml-src RLNDRXen4BxxAQRaqgf06zeqQWwHO0CI3GqeGRsKgZAx0x7YjRUsDuHMbVeGVPVU-oXzaewzoxA8vG3ipEVv-UORhnDE8inDRXrSer4euJPNJgG80vshX9ij_Flr6_gnoxc4nzVTq_Dk3xXAm76pHiUOqnau3Kljd4uX4GPZ9xHYza6eZ1kUmfB73slZmqLQQWCde_2f8UmzJ_H6g3MikBHOyuHZiQRA39psQWuf5BfjXg2DkzSrHu8hdaitqihTSEgZTQEfl3kkB4GVhc4UjPh1T-8xmkbPpTatHc_Aaj-UdvszUy_OCpf1cM4o_ZI4awje50tFAsCqlVN6mR0_6bR6MVzsFkvFgElXw4sq1mycq-XwUENjmzwmnrX6DF4r5JpD7NKh-PQ-FVdZAN0fzGQJ5lnW09vXhjOqkDQTpasC5bv1nEDxR06tO4kRB_4GFHCPUju2B2iV6d1JGx6iCznf4x2wPcZ03p0nEdwWAYoPuYB-iZGUmoCknP9YaKg06oTMF7RKP3YLweIgqZlMsCyQBr5k32e7blJWjIBIJ69AbX3gY9iIriss2nLp6UUoIFaIT22OMulfKcuX5K-UMazT6RafUxaUZps8IIs6QZxAM436AiiTfPHSf1R-_e7PUEv_OYsK__sMezc6TC8ZWseEuvXSVNq8iPw_240oDC2ATAIMaC_NZaKUjH89qXpy4r_IJ8HQg6eplTKWj_Gl9hPjCU4GfKXIxteUjXood68N9HrrFVE-ahb2MMIu2zKSrnnfMggbDkN821tNBGqdRf4AsyDDzTY0xHVDqeYF6Ynvg3hSRKcdSrcj0gjsmblhecS76-2zEwbS00ztup6YN02satJj56F5wBs9PilyV0-3neNMIPrq6DVSeQrGnQmE4tQxbwMSBigRkGrAEoy6HVnWGXsNmJrqFw8BmAUWvWF_uL2QCRL9D0DsbE-zh7vfxDul9fUuKBEzmY3rhoDVFMquNUzqDxHXCldO1bIFxGMfMwBTMeTf6pQuR0DTsLBQDkJPsl34lnA8jKpgRRayihfjMNZeVBuN2Mt8bqwDYVy0?></g></svg>